<svg xmlns="http://www.w3.org/2000/svg" xml:space="preserve" viewBox="0 0 90 90">
    <path fill="currentColor"
        d="M17.292 73.307c-.38-.483-1.194-.483-1.573 0a8.143 8.143 0 0 1-6.436 3.138 1 1 0 0 0 0 2c2.743 0 5.317-1.085 7.222-3.01a10.112 10.112 0 0 0 7.223 3.01 10.16 10.16 0 0 0 7.029-2.818 10.158 10.158 0 0 0 7.029 2.818c2.742 0 5.316-1.085 7.222-3.01a10.114 10.114 0 0 0 7.222 3.01c2.631 0 5.135-1.013 7.021-2.811a10.162 10.162 0 0 0 7.021 2.81c2.743 0 5.317-1.084 7.223-3.01a10.114 10.114 0 0 0 7.222 3.01 1 1 0 0 0 0-2 8.205 8.205 0 0 1-1.642-.173c3.227-3.532 2.249-7.488 2.2-7.673a1 1 0 0 0-.841-.737c-.126-.016-9.083-1.197-19.083-5.228v-4.378l10.526 1.986a1 1 0 0 0 1.08-1.43c-7.051-14.132 1.677-29.071 1.766-29.22a1 1 0 0 0-.909-1.512l-12.463.63v-3.492l6.696-.26a1 1 0 0 0 .962-1.015c-.054-3.352.494-9.198 2.194-10.62a1 1 0 0 0 .277-1.161.99.99 0 0 0-1.033-.599l-20.27 2.34c-.04.005-.075.025-.114.035-.057.013-.112.026-.166.05a.972.972 0 0 0-.174.104c-.032.023-.069.033-.098.06L12.687 47.237c-.032.03-.046.068-.074.1-.02.024-.052.035-.07.061-.017.023-.017.051-.031.074a.963.963 0 0 0-.105.255c-.014.049-.03.093-.036.143a.986.986 0 0 0 .024.336c.005.024-.003.05.005.074.24.769 5.809 18.356 15.607 26.952a8.157 8.157 0 0 1-4.28 1.213 8.143 8.143 0 0 1-6.435-3.138zm54.86-43.141c-2.064 4.186-6.742 15.86-1.8 27.751L43.06 52.77a53.852 53.852 0 0 0-6.625-2.506c-.04-2.768.187-12.991 5.441-18.57l30.276-1.527zm-12.8 27.712v3.915a69.653 69.653 0 0 1-2.66-1.229v-3.188l2.66.502zm-4.66-.88v2.547a55.373 55.373 0 0 1-5.484-3.32c-.182-.125-.37-.243-.555-.365l6.039 1.139zm2-28.055v-3.545l2.66-.103v3.514l-2.66.134zm-5.979-12.988.094-.113 17.716-2.045c-1.263 2.844-1.482 7.2-1.513 9.2l-19.57.76c.362-3.803 2.473-6.79 3.273-7.802zm-5.02 9.562a1 1 0 0 0 .733.28l8.266-.321v3.568l-13.31.672a.998.998 0 0 0-.656.292c-5.764 5.763-6.306 15.949-6.3 19.677-3.504-.95-6.92-1.57-9.953-1.973l21.21-25.669c-.177.87-.291 1.787-.296 2.75a1 1 0 0 0 .305.724zm-4.663-.983L22.11 47.43a84.79 84.79 0 0 0-6.169-.424l25.09-22.473zM14.75 48.988c4.911.091 21.911.992 33.322 8.883C60.49 66.458 75.85 69.197 79.435 69.74c.094 1.142-.036 3.634-2.45 5.798a8.212 8.212 0 0 1-2.704-2.23c-.38-.483-1.194-.482-1.573 0a8.143 8.143 0 0 1-6.436 3.138 8.174 8.174 0 0 1-6.256-2.913c-.38-.45-1.149-.45-1.529 0a8.174 8.174 0 0 1-6.257 2.913 8.143 8.143 0 0 1-6.436-3.138c-.378-.483-1.193-.481-1.572 0a8.143 8.143 0 0 1-6.436 3.138 8.171 8.171 0 0 1-6.264-2.921 1 1 0 0 0-1.53 0c-.128.151-.267.289-.404.43-8.03-6.852-13.333-20.669-14.839-24.966z" />
</svg>